<svg xmlns="http://www.w3.org/2000/svg" version="1.1" xmlns:xlink="http://www.w3.org/1999/xlink" xmlns:svgjs="http://svgjs.dev/svgjs" width="1000" height="750" viewBox="0 0 1000 750"><rect width="1000" height="750" fill="#ffffff"></rect><g transform="matrix(0.5191111111111111,0,0,0.5191111111111111,240.4444444444445,83)"><svg viewBox="0 0 320 360" data-background-color="#ffffff" preserveAspectRatio="xMidYMid meet" height="1125" width="1000" xmlns="http://www.w3.org/2000/svg" xmlns:xlink="http://www.w3.org/1999/xlink"><g id="tight-bounds" transform="matrix(1,0,0,1,0,0)"><svg viewBox="0 0 320 360" height="360" width="320"><g><svg></svg></g><g><svg viewBox="0 0 320 360" height="360" width="320"><g><path xmlns="http://www.w3.org/2000/svg" d="M20.961 227.22l3.726 4.658-1.863-6.056c-0.466-2.795-3.726 0.466-1.863 1.398M25.153 224.425c1.397 2.329 2.795 4.658 2.795 6.987 0 3.261 2.795 4.658 5.123 5.589-3.261-3.726-5.124-13.974-7.918-12.576M204.017 26.929c7.918 0 15.371-0.932 23.756 0.931 20.495 5.124 37.729 15.371 49.374 29.811l32.606 52.169c1.397 13.042 4.192 27.482 3.726 43.319 3.261 0 2.795-4.658 6.521-5.59-3.726 9.316-5.59 20.961-6.521 34.469-2.329-7.453 0-18.632 0.466-24.687-3.261 5.124-5.124 1.397-5.124-0.932 0.466-3.726-1.397-3.261-2.795-4.658-5.124-4.658-8.384-9.782-12.11-17.7 2.329-6.055 2.795-14.905-4.658-19.563-2.329-1.397-5.124-3.726-6.521-7.453-1.863-5.124-5.124-11.179-4.193-19.097 0.466-2.329-6.987 5.124-11.179 1.863-18.166-12.576-36.332-27.016-58.224-39.127-11.645 0-20.029-4.192-24.221-9.316-3.726-4.658-0.932-10.713 4.658-11.179 3.261 0 6.987-0.932 9.782 0.932 0.466-1.863 2.329-4.192 4.657-4.192M157.904 16.215l0.932 0.466c4.658 0.932 6.987 7.453 12.11 5.124 0 3.261 0.466 6.521-0.466 8.85-1.397 3.726-5.59 3.726-8.85 3.726-31.208-1.863-49.374 11.179-68.471 22.358-5.124 3.261-10.713 5.59-14.906 9.782-20.029 18.632-41.921 35.866-47.045 70.335l-4.192 38.195c-0.466 4.192-5.124 8.384-4.192 13.508l3.26 22.824c-3.261-3.261-5.124 0.932-4.192 2.795 0.466 1.397 2.329 6.055 5.124 1.863 3.726 6.987 7.453 20.495 12.576 26.55 15.837 18.632 36.332 35.4 53.101 52.169 4.192-0.932 7.453-0.932 8.384-3.727 1.397 2.795-1.397 5.59-3.726 6.056 7.453 4.658 15.837 8.85 27.016 9.781 14.44 0.932 27.948 3.261 40.524 6.522 6.521-1.863 13.042-2.795 20.029-3.261 2.329 0 3.726-3.726 6.521-4.658l0.466-4.658c2.795 4.192 2.329-1.397 0.466-4.192 3.261 2.795 4.192 5.124 5.589 6.987 0-1.397 3.726-6.521 3.727-0.466l0.931-6.055c1.397-0.932 1.863 5.124 3.261 0.931 1.397-4.192 4.192-0.932 6.987-2.329-0.932 1.863-0.466 5.59 2.794 3.261l3.727-3.261c2.329 5.59 6.055 3.261 7.918 2.329 20.495-13.042 40.99-28.413 60.553-43.784l-0.466 6.055 2.329-7.453c2.329 2.329 4.192 0.466 5.124-0.931 2.795-4.658 6.521-9.316 12.577-13.508-7.453 20.029-16.303 35.866-27.482 48.908l-4.658 5.59c0 3.261-0.932 7.453-4.658 7.918-1.863 0.466-5.59-0.932-8.384 1.863-1.397 1.863 3.261 5.59-0.466 2.795-3.261-2.329-6.521 0-10.248 0.932-2.795 0.932 1.863 3.726 2.795 5.589 0.932 1.863 1.863 3.726 1.398 6.056l-5.124-5.59c-6.055 3.261-9.782 9.316-14.906 13.974-2.329 1.863-1.397 5.124-1.397 7.918-3.261 0-6.987-0.932-8.85 0.932-1.397 1.863-0.932 4.658-0.932 7.453-4.658-0.466-5.124-7.453-9.315-6.056-4.192 0.932-8.85 1.397-12.577 3.727 2.795 5.59-4.658 2.329-3.726 3.26-6.987-4.192-13.042-7.453-20.495-4.658-15.837-5.124-35.4-2.795-49.84-0.931 0-2.329 0.466-4.658-0.466-5.124-0.932 2.329-3.726 1.397-3.26 1.397-8.85-6.055-17.7-9.782-27.016-14.905-8.384 0.932-16.303-3.261-18.632-5.59-6.521-6.055-13.974-2.795-20.029-4.192-13.042-3.261-17.7-16.769-19.098-26.084-0.932-4.658-4.658-6.521-6.055-6.056-6.055-19.563-15.371-37.263-22.824-55.429-1.863-4.658-1.397-9.316-1.397-14.44 2.329 0.932 4.658 0.466 4.192-2.794-2.329-15.371-7.918-27.016-13.974-38.195 3.261-15.837 3.726-34.469 11.179-48.443 6.521-12.576 18.632-19.098 27.016-29.811 2.795-3.726 2.795-8.85 5.59-12.11 9.316-9.316 18.632-19.098 28.879-27.482 4.658-3.726 10.247 0 17.234-1.397 2.329-8.384 11.645-15.837 20.495-13.508 3.726 0.932 11.179-8.85 13.508-9.782 3.726-1.397 1.863 3.726 1.863 6.987 8.85-6.987 20.961-10.713 32.14-14.906" fill="#ed1703" fill-rule="nonzero" stroke="none" stroke-width="1" stroke-linecap="butt" stroke-linejoin="miter" stroke-miterlimit="10" stroke-dasharray="" stroke-dashoffset="0" font-family="none" font-weight="none" font-size="none" text-anchor="none" style="mix-blend-mode: normal" data-fill-palette-color="tertiary"></path></g><g transform="matrix(1,0,0,1,64,149.22222859052926)"><svg viewBox="0 0 192 61.555542818941504" height="61.555542818941504" width="192"><g><svg viewBox="0 0 192 61.555542818941504" height="61.555542818941504" width="192"><g><svg viewBox="0 0 192 61.555542818941504" height="61.555542818941504" width="192"><g><svg viewBox="0 0 192 61.555542818941504" height="61.555542818941504" width="192"><g id="textblocktransform"><svg viewBox="0 0 192 61.555542818941504" height="61.555542818941504" width="192" id="textblock"><g><svg viewBox="0 0 192 34.89693593314763" height="34.89693593314763" width="192"><g transform="matrix(1,0,0,1,0,0)"><svg width="192" viewBox="-0.5900000333786011 -36.869998931884766 210.33999633789062 38.23999786376953" height="34.89693593314763" data-palette-color="#ed1703"><path d="M15.23 1.37L15.23 1.37Q12.52 1.37 10.29 1.01 8.06 0.66 5.99-0.23 3.93-1.12 2.51-2.54 1.1-3.96 0.26-6.23-0.59-8.5-0.59-11.47L-0.59-11.47Q-0.59-12.79 0.2-12.79L0.2-12.79 11.33-12.79Q12.08-12.79 12.45-12.43 12.82-12.06 12.89-11.52 12.96-10.99 13.02-10.45 13.09-9.91 13.39-9.55 13.7-9.18 14.36-9.18L14.36-9.18Q14.97-9.18 15.34-9.51 15.72-9.84 15.88-10.5 16.04-11.16 16.08-11.65 16.11-12.13 16.11-12.89L16.11-12.89 16.11-13.09Q16.09-14.84 15.98-19.87 15.87-24.9 15.87-27.73L15.87-27.73 15.87-36.04Q15.87-36.74 16.89-36.87L16.89-36.87Q17.68-36.87 19.24-36.84 20.8-36.82 21.58-36.82L21.58-36.82Q22.75-36.82 25.05-36.84 27.34-36.87 28.52-36.87L28.52-36.87 30.81-36.87Q31.37-36.87 31.59-36.18L31.59-36.18Q31.54-35.74 31.56-34.99 31.57-34.23 31.54-33.79L31.54-33.79 31.54-32.57Q31.3-25.07 31.3-19.19L31.3-19.19 31.3-11.52Q31.3-9.38 30.71-7.54 30.13-5.71 29.15-4.42 28.17-3.13 26.82-2.09 25.46-1.05 24.02-0.42 22.58 0.22 20.98 0.63 19.38 1.05 17.98 1.21 16.58 1.37 15.23 1.37ZM34.23-16.21L34.23-17.68 34.18-18.21Q34.64-22.19 35.06-23.75L35.06-23.75Q36.01-27.42 38.47-29.88L38.47-29.88 39.06-30.47Q40.23-31.84 42.62-32.81L42.62-32.81 43.55-32.81Q45.94-33.81 51.41-34.67L51.41-34.67Q52.78-34.67 54.28-34.46 55.78-34.25 57.61-33.78 59.45-33.3 61.14-32.26 62.84-31.23 63.96-29.79L63.96-29.79 63.96-29.1Q67.97-24.1 67.97-17.87L67.97-17.87Q67.97-10.86 64.74-6.45L64.74-6.45 63.77-5.22Q62.64-3.83 60.97-2.83 59.3-1.83 57.42-1.31 55.54-0.78 53.82-0.56 52.1-0.34 50.39-0.34L50.39-0.34Q47.87-0.34 45.59-0.94 43.31-1.54 41.32-2.81 39.33-4.08 37.81-5.93 36.3-7.79 35.36-10.41 34.42-13.04 34.23-16.21L34.23-16.21ZM47.65-18.55L47.65-17.48Q47.65-8.89 50.93-8.89L50.93-8.89Q51.83-8.89 52.5-9.23 53.17-9.57 53.59-10.28 54-10.99 54.27-11.72 54.54-12.45 54.65-13.55 54.76-14.65 54.79-15.48 54.83-16.31 54.83-17.48L54.83-17.48 54.83-18.36Q54.83-19.63 54.69-20.8 54.54-21.97 54.18-23.16 53.83-24.34 53.1-25.06 52.37-25.78 51.32-25.78L51.32-25.78Q47.65-25.78 47.65-18.55L47.65-18.55ZM90.33-24.12L90.33-24.12Q89.67-24.12 89.25-24.32 88.84-24.51 88.59-24.8 88.35-25.1 88.04-25.39 87.74-25.68 87.08-25.88 86.42-26.07 85.4-26.07L85.4-26.07Q85.08-26.07 84.63-26.01 84.17-25.95 83.64-25.68 83.1-25.42 83.1-25L83.1-25Q83.1-24.54 83.55-24.21 84-23.88 84.58-23.74 85.15-23.61 85.87-23.43 86.59-23.24 86.88-23.1L86.88-23.1 90.47-22.22Q92.06-21.78 93.33-21.29 94.6-20.8 96.03-19.96 97.46-19.12 98.41-18.09 99.36-17.07 100-15.52 100.63-13.96 100.63-12.11L100.63-12.11Q100.63-9.86 100.04-8.11L100.04-8.11 100.04-8.15Q99.53-6.59 98.6-5.36 97.68-4.13 96.41-3.31 95.14-2.49 93.84-1.94 92.55-1.39 90.85-1.06 89.16-0.73 87.82-0.57 86.49-0.42 84.76-0.29L84.76-0.29Q77.07-0.68 74.46-2.73L74.46-2.73 74.46-3.03Q72.24-4.69 71.17-6.64 70.11-8.59 69.92-11.04L69.92-11.04Q69.92-11.62 70.45-11.62L70.45-11.62Q70.6-11.62 70.89-11.6 71.19-11.57 71.33-11.57L71.33-11.57 73.82-11.57Q74.16-11.62 74.8-11.62L74.8-11.62 75.43-11.62Q75.63-11.62 75.78-11.57L75.78-11.57Q77.19-11.62 80.61-11.62L80.61-11.62 81.73-11.62Q82.22-11.62 82.49-11.33 82.76-11.04 82.92-10.61 83.08-10.18 83.28-9.75 83.49-9.33 84.03-9.03 84.57-8.74 85.44-8.74L85.44-8.74Q86.4-8.74 87.17-9.24 87.93-9.74 87.93-10.69L87.93-10.69Q87.93-11.13 87.52-11.52 87.1-11.91 86.27-12.23 85.44-12.55 84.8-12.74 84.15-12.94 83.05-13.21 81.95-13.48 81.64-13.57L81.64-13.57 80.17-13.57Q74.87-15.14 72.54-17.54 70.21-19.95 70.21-23.63L70.21-23.63Q70.21-26.07 71.13-28.03 72.04-29.98 73.54-31.23 75.04-32.47 77.07-33.31 79.1-34.16 81.2-34.51 83.3-34.86 85.54-34.86L85.54-34.86Q89.52-34.86 92.93-33.53 96.33-32.2 98.09-30.08L98.09-30.08Q98.73-29.44 99.12-28.47 99.51-27.49 99.62-26.92 99.73-26.34 99.9-25L99.9-25 99.21-24.02 95.06-24.02Q94.38-24.02 92.79-24.07 91.21-24.12 90.33-24.12ZM135-32.57L135-32.57 135-2.54Q135-2.03 134.97-1.72 134.93-1.42 134.76-1.15 134.59-0.88 134.27-0.88L134.27-0.88 121.82-0.88 121.82-1.42Q121.77-1.46 121.44-1.64 121.11-1.81 121.04-1.95L121.04-1.95 121.04-11.82Q121.04-12.35 120.95-12.43 120.87-12.5 120.26-12.5L120.26-12.5 118.6-12.5Q118.01-12.5 117.23-12.4L117.23-12.4 117.23-1.86Q117.13-1.42 116.85-1.29 116.57-1.17 116.01-1.17L116.01-1.17 114.89-1.17Q113.74-1.17 111.28-1.12 108.83-1.07 107.56-1.07L107.56-1.07 104.34-1.07Q103.29-1.07 103.29-2.25L103.29-2.25 103.43-33.01Q103.43-33.13 103.51-33.22 103.58-33.3 103.8-33.46 104.02-33.62 104.05-33.64L104.05-33.64 117.18-33.64 117.18-23.14 121.43-23.14 121.43-33.89 133.88-33.89Q134.47-33.89 134.73-33.62 135-33.35 135-32.57ZM139.59-27.93L139.59-27.88Q139.49-28.37 139.49-30.66L139.49-30.66Q139.49-33.3 139.98-33.79L139.98-33.79 153.26-33.79 153.26-13.28Q153.26-10.11 155.12-10.11L155.12-10.11Q155.9-10.11 156.41-10.8 156.92-11.5 156.92-12.45L156.92-12.45 156.92-16.06Q157.07-26.76 157.07-26.86L157.07-26.86Q157.07-31.1 156.97-33.01L156.97-33.01Q156.97-33.69 157.66-33.98L157.66-33.98 171.23-33.98 171.23-30.18Q170.91-20.92 170.84-18.26L170.84-18.26 170.84-16.75Q170.84-16.46 170.82-15.97 170.79-15.48 170.79-15.28L170.79-15.28Q170.79-14.45 170.84-14.11L170.84-14.11 170.84-12.21Q170.84-8.81 170.16-7.32L170.16-7.32 170.16-7.23Q169.37-5.4 167.91-4.06 166.45-2.73 164.57-1.99 162.69-1.25 160.71-0.92 158.73-0.59 156.53-0.59L156.53-0.59Q155.85-0.59 155.51-0.73L155.51-0.73 154.92-0.73Q154.92-0.49 154.19-0.49L154.19-0.49 154.19-0.44Q153.65-0.42 151.06-0.68L151.06-0.68 149.94-0.68Q148.4-0.85 146.97-1.37 145.55-1.88 144.2-2.82 142.86-3.76 141.85-5.05 140.83-6.35 140.2-8.2 139.57-10.06 139.49-12.26L139.49-12.26Q139.52-13.53 139.5-15.77 139.49-18.02 139.52-19.86 139.54-21.7 139.64-23.44L139.64-23.44 139.64-24.12Q139.64-24.24 139.66-24.51 139.69-24.78 139.69-24.9L139.69-24.9Q139.69-25.27 139.64-26 139.59-26.73 139.59-27.1L139.59-27.1 139.59-27.93ZM193.93-6.05L186.41-6.05Q186.24-5.49 186.08-4.58 185.93-3.66 185.79-3.14 185.66-2.61 185.34-2.04 185.02-1.46 184.37-1.2 183.73-0.93 182.7-0.93L182.7-0.93 172.16-0.93 172.16-1.76Q173.45-5.64 175.93-13.67 178.41-21.7 179.77-25.83L179.77-25.83 179.77-25.78Q180.6-28.15 182.21-33.2L182.21-33.2Q182.24-33.25 182.29-33.33L182.29-33.33Q182.51-33.69 182.7-33.89L182.7-33.89 195.89-33.79Q199.26-33.79 199.6-33.2L199.6-33.2 199.6-32.57Q199.65-32.35 200.13-31.45L200.13-31.45Q202.5-24.19 203.6-20.9L203.6-20.9 203.6-20.61Q203.7-19.9 204.04-18.99 204.38-18.09 204.86-17.05 205.33-16.02 205.53-15.43L205.53-15.43 206.51-11.91Q207.36-9.08 209.02-4.35L209.02-4.35 209.02-4.39 209.02-3.91Q209.09-3.56 209.39-2.98 209.68-2.39 209.75-2.15L209.75-2.15Q209.75-1.46 209.47-1.27 209.19-1.07 208.39-1.07L208.39-1.07 197.06-1.07Q196.64-1.12 196.52-1.15 196.4-1.17 196.14-1.25 195.89-1.32 195.78-1.44 195.67-1.56 195.64-1.76L195.64-1.76 194.71-5.47Q194.62-5.93 194.52-5.99 194.42-6.05 193.93-6.05L193.93-6.05ZM187.59-14.65L187.59-14.75 187.59-14.65ZM192.96-17.68L192.96-17.68Q192.81-18.36 192.53-19.89 192.25-21.41 191.98-22.55 191.71-23.68 191.39-24.66L191.39-24.66 191.39-25.83Q191.2-26.34 190.71-26.56L190.71-26.56 190.71-26.51Q190.12-26.39 189.54-23.24L189.54-23.24 189.54-22.07Q189.49-21.9 189.32-21.75 189.15-21.61 189.15-21.58L189.15-21.58Q188.34-18.02 187.83-15.82L187.83-15.82Q187.83-15.58 187.71-14.97 187.59-14.36 187.59-14.26L187.59-14.26 193.64-14.26Q193.64-14.89 193.2-16.55L193.2-16.55 193.2-17.09Q193.18-17.16 193.07-17.37 192.96-17.58 192.96-17.68Z" opacity="1" transform="matrix(1,0,0,1,0,0)" fill="#ed1703" class="undefined-text-0" data-fill-palette-color="primary" id="text-0"></path></svg></g></svg></g><g transform="matrix(1,0,0,1,0,39.98923641225627)"><svg viewBox="0 0 192 21.566306406685236" height="21.566306406685236" width="192"><g transform="matrix(1,0,0,1,0,0)"><svg width="192" viewBox="3 -38 432.6700134277344 48.599998474121094" height="21.566306406685236" data-palette-color="#ed1703"><path d="M14.75 0.6L14.75 0.6Q11.6 0.6 9.63-0.38 7.65-1.35 6.85-3L6.85-3 6.6-3 6.6 0 3 0 3-10.25 6.6-10.25 6.6-7.95Q6.6-6.7 6.98-5.63 7.35-4.55 8.22-3.75 9.1-2.95 10.53-2.5 11.95-2.05 14-2.05L14-2.05Q18.35-2.05 20.28-3.9 22.2-5.75 22.2-8.85L22.2-8.85Q22.2-11.5 20.73-13 19.25-14.5 16.1-15.35L16.1-15.35 13.35-16.05Q8.7-17.25 6.15-19.65 3.6-22.05 3.6-26.25L3.6-26.25Q3.6-28.35 4.4-30.08 5.2-31.8 6.65-33 8.1-34.2 10.13-34.85 12.15-35.5 14.6-35.5L14.6-35.5Q17.45-35.5 19.28-34.63 21.1-33.75 21.85-32.2L21.85-32.2 22.15-32.2 22.15-34.9 25.75-34.9 25.75-25.15 22.15-25.15 22.15-27.45Q22.15-28.7 21.78-29.7 21.4-30.7 20.5-31.4 19.6-32.1 18.15-32.48 16.7-32.85 14.6-32.85L14.6-32.85Q11.1-32.85 9.35-31.25 7.6-29.65 7.6-27.05L7.6-27.05Q7.6-24.35 9.18-22.83 10.75-21.3 14.15-20.4L14.15-20.4 16.7-19.75Q21.25-18.55 23.7-16.15 26.15-13.75 26.15-9.85L26.15-9.85Q26.15-7.6 25.4-5.68 24.65-3.75 23.2-2.35 21.75-0.95 19.63-0.18 17.5 0.6 14.75 0.6ZM43.7-1.85L43.7-1.85Q45.55-1.85 46.92-2.48 48.3-3.1 49.17-4.23 50.05-5.35 50.47-6.88 50.9-8.4 50.9-10.2L50.9-10.2 50.9-15.6Q50.9-17.4 50.47-18.93 50.05-20.45 49.17-21.58 48.3-22.7 46.92-23.33 45.55-23.95 43.7-23.95L43.7-23.95Q41.8-23.95 40.45-23.33 39.1-22.7 38.22-21.58 37.35-20.45 36.92-18.93 36.5-17.4 36.5-15.6L36.5-15.6 36.5-10.2Q36.5-8.4 36.92-6.88 37.35-5.35 38.22-4.23 39.1-3.1 40.45-2.48 41.8-1.85 43.7-1.85ZM43.7 0.6L43.7 0.6Q41.05 0.6 38.85-0.35 36.65-1.3 35.1-3.08 33.55-4.85 32.7-7.33 31.85-9.8 31.85-12.9L31.85-12.9Q31.85-15.95 32.7-18.45 33.55-20.95 35.1-22.73 36.65-24.5 38.85-25.45 41.05-26.4 43.7-26.4L43.7-26.4Q46.35-26.4 48.55-25.45 50.75-24.5 52.3-22.73 53.85-20.95 54.7-18.45 55.55-15.95 55.55-12.9L55.55-12.9Q55.55-9.8 54.7-7.33 53.85-4.85 52.3-3.08 50.75-1.3 48.55-0.35 46.35 0.6 43.7 0.6ZM59.95 0L59.95-2.3 63.65-2.3 63.65-23.35 59.95-23.35 59.95-25.8 63.65-25.8 63.65-29.85Q63.65-31.65 64.25-33.15 64.85-34.65 65.92-35.73 67-36.8 68.47-37.4 69.95-38 71.7-38L71.7-38Q74.4-38 75.97-36.95 77.55-35.9 77.55-33.95L77.55-33.95Q77.55-32.65 76.82-31.88 76.1-31.1 74.95-31.1L74.95-31.1Q73.85-31.1 73.17-31.8 72.5-32.5 72.5-33.5L72.5-33.5Q72.5-35.25 73.85-35.8L73.85-35.8 73.85-35.9Q73.5-36 73.05-36.05 72.6-36.1 72.05-36.1L72.05-36.1Q69.95-36.1 68.85-34.6 67.75-33.1 67.75-30.4L67.75-30.4 67.75-25.8 73.35-25.8 73.35-23.35 67.75-23.35 67.75-2.3 72.45-2.3 72.45 0 59.95 0ZM85.1 0.3L85.1 0.3Q82.45 0.3 81.45-0.78 80.45-1.85 80.45-4.45L80.45-4.45 80.45-23.35 77.15-23.35 77.15-25.8 77.6-25.8Q78.65-25.8 79.27-25.95 79.9-26.1 80.27-26.38 80.65-26.65 80.82-27.08 81-27.5 81.15-28.05L81.15-28.05 82.3-32.5 84.55-32.5 84.55-25.8 91.2-25.8 91.2-23.35 84.55-23.35 84.55-2.45 91.2-2.45 91.2-0.8Q90.75-0.55 90.07-0.35 89.4-0.15 88.57 0 87.75 0.15 86.85 0.23 85.95 0.3 85.1 0.3ZM102.34 0L95.84-23.5 93.24-23.5 93.24-25.8 103.59-25.8 103.59-23.5 99.99-23.5 105.14-4 105.34-4 111.59-25.8 115.04-25.8 120.79-4 120.99-4 126.24-23.5 122.64-23.5 122.64-25.8 131.29-25.8 131.29-23.5 128.69-23.5 122.14 0 118.14 0 112.59-20.25 112.39-20.25 106.34 0 102.34 0ZM141.64 0.6L141.64 0.6Q138.04 0.6 136.02-1.28 133.99-3.15 133.99-6.4L133.99-6.4Q133.99-8.25 134.59-9.68 135.19-11.1 136.57-12.05 137.94-13 140.14-13.5 142.34-14 145.49-14L145.49-14 149.19-14 149.19-17.8Q149.19-20.85 147.72-22.48 146.24-24.1 143.29-24.1L143.29-24.1Q141.99-24.1 140.89-23.88 139.79-23.65 139.09-23.25L139.09-23.25 139.09-23.15Q139.64-22.85 140.17-22.25 140.69-21.65 140.69-20.55L140.69-20.55Q140.69-19.25 139.94-18.53 139.19-17.8 137.94-17.8L137.94-17.8Q136.74-17.8 135.97-18.53 135.19-19.25 135.19-20.7L135.19-20.7Q135.19-21.8 135.84-22.83 136.49-23.85 137.69-24.65 138.89-25.45 140.67-25.93 142.44-26.4 144.69-26.4L144.69-26.4Q148.74-26.4 151.02-24.3 153.29-22.2 153.29-18.4L153.29-18.4 153.29-2.15 157.04-2.15 157.04-0.4Q156.49 0 155.57 0.3 154.64 0.6 153.49 0.6L153.49 0.6Q151.54 0.6 150.49-0.5 149.44-1.6 149.44-3.45L149.44-3.45 149.44-3.8 149.19-3.8Q148.84-2.95 148.27-2.15 147.69-1.35 146.79-0.75 145.89-0.15 144.62 0.23 143.34 0.6 141.64 0.6ZM143.39-2.15L143.39-2.15Q145.79-2.15 147.49-3.38 149.19-4.6 149.19-7.15L149.19-7.15 149.19-12 145.94-12Q143.79-12 142.34-11.68 140.89-11.35 140.04-10.73 139.19-10.1 138.82-9.2 138.44-8.3 138.44-7.1L138.44-7.1 138.44-6.05Q138.44-4.15 139.74-3.15 141.04-2.15 143.39-2.15ZM161.49 0L161.49-2.3 165.19-2.3 165.19-22.55 161.49-23.2 161.49-24.9 169.19-26.4 169.19-21.9 169.44-21.9Q169.79-22.7 170.32-23.5 170.84-24.3 171.62-24.95 172.39-25.6 173.42-26 174.44-26.4 175.79-26.4L175.79-26.4Q177.99-26.4 179.32-25.35 180.64-24.3 180.64-22.3L180.64-22.3Q180.64-20.8 179.89-19.95 179.14-19.1 177.94-19.1L177.94-19.1Q176.59-19.1 175.79-19.83 174.99-20.55 174.99-21.7L174.99-21.7Q174.99-22.7 175.42-23.33 175.84-23.95 176.39-24.05L176.39-24.05 176.39-24.15Q176.19-24.2 175.89-24.23 175.59-24.25 175.14-24.25L175.14-24.25Q174.09-24.25 173.04-23.73 171.99-23.2 171.17-22.38 170.34-21.55 169.82-20.5 169.29-19.45 169.29-18.4L169.29-18.4 169.29-2.3 173.99-2.3 173.99 0 161.49 0ZM195.29 0.6L195.29 0.6Q192.54 0.6 190.36-0.38 188.19-1.35 186.69-3.1 185.19-4.85 184.39-7.35 183.59-9.85 183.59-12.9L183.59-12.9Q183.59-15.9 184.46-18.38 185.34-20.85 186.86-22.65 188.39-24.45 190.49-25.43 192.59-26.4 195.09-26.4L195.09-26.4Q197.64-26.4 199.64-25.5 201.64-24.6 203.01-22.98 204.39-21.35 205.14-19.1 205.89-16.85 205.89-14.2L205.89-14.2 205.89-13.05 188.14-13.05 188.14-11.75Q188.14-7.5 190.26-5.05 192.39-2.6 195.94-2.6L195.94-2.6Q199.04-2.6 200.86-3.88 202.69-5.15 203.74-7.2L203.74-7.2 205.39-6.15Q204.89-4.85 204.01-3.63 203.14-2.4 201.89-1.48 200.64-0.55 198.99 0.03 197.34 0.6 195.29 0.6ZM188.14-15.95L188.14-15.35 201.59-15.35 201.59-15.85Q201.59-17.6 201.21-19.1 200.84-20.6 200.04-21.7 199.24-22.8 198.01-23.43 196.79-24.05 195.09-24.05L195.09-24.05Q193.39-24.05 192.09-23.45 190.79-22.85 189.91-21.75 189.04-20.65 188.59-19.18 188.14-17.7 188.14-15.95L188.14-15.95ZM222.89 0L222.89-2.3 226.64-2.3 226.64-32.6 222.89-32.6 222.89-34.9 248.69-34.9 248.69-26.5 245.09-26.5 245.09-32.45 230.94-32.45 230.94-19.2 240.84-19.2 240.84-23.2 243.84-23.2 243.84-12.75 240.84-12.75 240.84-16.75 230.94-16.75 230.94-2.45 245.59-2.45 245.59-8.85 249.19-8.85 249.19 0 222.89 0ZM254.88 0L254.88-2.3 258.58-2.3 258.58-22.55 254.88-23.2 254.88-24.9 262.58-26.4 262.58-21.9 262.78-21.9Q263.08-22.65 263.71-23.45 264.33-24.25 265.26-24.9 266.18-25.55 267.43-25.98 268.68-26.4 270.18-26.4L270.18-26.4Q274.83-26.4 276.86-23.98 278.88-21.55 278.88-16.7L278.88-16.7 278.88-2.3 282.58-2.3 282.58 0 271.08 0 271.08-2.3 274.78-2.3 274.78-16.35Q274.78-23.55 268.73-23.55L268.73-23.55Q267.63-23.55 266.56-23.25 265.48-22.95 264.61-22.3 263.73-21.65 263.21-20.7 262.68-19.75 262.68-18.45L262.68-18.45 262.68-2.3 266.38-2.3 266.38 0 254.88 0ZM297.63 10.6L297.63 10.6Q294.63 10.6 292.53 10.15 290.43 9.7 289.13 8.9 287.83 8.1 287.26 6.95 286.68 5.8 286.68 4.4L286.68 4.4Q286.68 3.4 287.13 2.55 287.58 1.7 288.33 1.05 289.08 0.4 290.03-0.08 290.98-0.55 291.98-0.8L291.98-0.8 291.98-1Q288.83-2.1 288.83-5.25L288.83-5.25Q288.83-7.25 290.11-8.4 291.38-9.55 293.08-10L293.08-10 293.08-10.25Q290.73-11.25 289.36-13.2 287.98-15.15 287.98-17.9L287.98-17.9Q287.98-19.85 288.71-21.43 289.43-23 290.76-24.1 292.08-25.2 293.88-25.8 295.68-26.4 297.83-26.4L297.83-26.4Q300.18-26.4 301.86-25.78 303.53-25.15 304.68-24.25L304.68-24.25Q304.73-27.15 305.81-28.2 306.88-29.25 308.33-29.25L308.33-29.25Q309.43-29.25 310.16-28.6 310.88-27.95 310.88-26.85L310.88-26.85Q310.88-25.8 310.21-25.13 309.53-24.45 308.33-24.45L308.33-24.45Q306.93-24.45 306.18-25.45L306.18-25.45 306.03-25.45 306.03-22.95Q306.58-22.2 307.18-21 307.78-19.8 307.78-17.9L307.78-17.9Q307.78-15.95 307.03-14.35 306.28-12.75 304.96-11.65 303.63-10.55 301.81-9.95 299.98-9.35 297.83-9.35L297.83-9.35Q296.43-9.35 295.18-9.65L295.18-9.65Q293.88-9.4 292.83-8.58 291.78-7.75 291.78-6.6L291.78-6.6Q291.78-5.35 292.73-4.85 293.68-4.35 295.93-4.35L295.93-4.35 301.83-4.35Q306.23-4.35 308.36-2.58 310.48-0.8 310.48 2.5L310.48 2.5Q310.48 6.2 307.23 8.4 303.98 10.6 297.63 10.6ZM297.88-11.5L297.88-11.5Q300.63-11.5 302.01-12.95 303.38-14.4 303.38-16.9L303.38-16.9 303.38-18.85Q303.38-21.35 302.01-22.8 300.63-24.25 297.88-24.25L297.88-24.25Q295.13-24.25 293.76-22.8 292.38-21.35 292.38-18.85L292.38-18.85 292.38-16.9Q292.38-14.4 293.76-12.95 295.13-11.5 297.88-11.5ZM290.33 4.15L290.33 4.15Q290.33 6.15 292.06 7.15 293.78 8.15 296.68 8.15L296.68 8.15 299.03 8.15Q302.78 8.15 304.91 6.9 307.03 5.65 307.03 3.55L307.03 3.55Q307.03 1.65 305.73 0.68 304.43-0.3 301.18-0.3L301.18-0.3 293.38-0.3Q291.78 0.4 291.06 1.55 290.33 2.7 290.33 4.15ZM320.18-31.75L320.18-31.75Q318.88-31.75 318.21-32.52 317.53-33.3 317.53-34.4L317.53-34.4 317.53-34.65Q317.53-35.75 318.21-36.52 318.88-37.3 320.18-37.3L320.18-37.3Q321.48-37.3 322.18-36.52 322.88-35.75 322.88-34.65L322.88-34.65 322.88-34.4Q322.88-33.3 322.18-32.52 321.48-31.75 320.18-31.75ZM314.43 0L314.43-2.3 318.13-2.3 318.13-22.55 314.43-23.2 314.43-24.9 322.23-26.4 322.23-2.3 325.93-2.3 325.93 0 314.43 0ZM330.38 0L330.38-2.3 334.08-2.3 334.08-22.55 330.38-23.2 330.38-24.9 338.08-26.4 338.08-21.9 338.28-21.9Q338.58-22.65 339.2-23.45 339.83-24.25 340.75-24.9 341.68-25.55 342.93-25.98 344.18-26.4 345.68-26.4L345.68-26.4Q350.33-26.4 352.35-23.98 354.38-21.55 354.38-16.7L354.38-16.7 354.38-2.3 358.08-2.3 358.08 0 346.58 0 346.58-2.3 350.28-2.3 350.28-16.35Q350.28-23.55 344.23-23.55L344.23-23.55Q343.13-23.55 342.05-23.25 340.98-22.95 340.1-22.3 339.23-21.65 338.7-20.7 338.18-19.75 338.18-18.45L338.18-18.45 338.18-2.3 341.88-2.3 341.88 0 330.38 0ZM373.98 0.6L373.98 0.6Q371.23 0.6 369.05-0.38 366.88-1.35 365.38-3.1 363.88-4.85 363.08-7.35 362.28-9.85 362.28-12.9L362.28-12.9Q362.28-15.9 363.15-18.38 364.03-20.85 365.55-22.65 367.08-24.45 369.18-25.43 371.28-26.4 373.78-26.4L373.78-26.4Q376.33-26.4 378.33-25.5 380.33-24.6 381.7-22.98 383.08-21.35 383.83-19.1 384.58-16.85 384.58-14.2L384.58-14.2 384.58-13.05 366.83-13.05 366.83-11.75Q366.83-7.5 368.95-5.05 371.08-2.6 374.63-2.6L374.63-2.6Q377.73-2.6 379.55-3.88 381.38-5.15 382.43-7.2L382.43-7.2 384.08-6.15Q383.58-4.85 382.7-3.63 381.83-2.4 380.58-1.48 379.33-0.55 377.68 0.03 376.03 0.6 373.98 0.6ZM366.83-15.95L366.83-15.35 380.28-15.35 380.28-15.85Q380.28-17.6 379.9-19.1 379.53-20.6 378.73-21.7 377.93-22.8 376.7-23.43 375.48-24.05 373.78-24.05L373.78-24.05Q372.08-24.05 370.78-23.45 369.48-22.85 368.6-21.75 367.73-20.65 367.28-19.18 366.83-17.7 366.83-15.95L366.83-15.95ZM400.98 0.6L400.98 0.6Q398.23 0.6 396.05-0.38 393.88-1.35 392.38-3.1 390.88-4.85 390.08-7.35 389.28-9.85 389.28-12.9L389.28-12.9Q389.28-15.9 390.15-18.38 391.03-20.85 392.55-22.65 394.08-24.45 396.18-25.43 398.28-26.4 400.78-26.4L400.78-26.4Q403.33-26.4 405.33-25.5 407.33-24.6 408.7-22.98 410.08-21.35 410.83-19.1 411.58-16.85 411.58-14.2L411.58-14.2 411.58-13.05 393.83-13.05 393.83-11.75Q393.83-7.5 395.95-5.05 398.08-2.6 401.63-2.6L401.63-2.6Q404.73-2.6 406.55-3.88 408.38-5.15 409.43-7.2L409.43-7.2 411.08-6.15Q410.58-4.85 409.7-3.63 408.83-2.4 407.58-1.48 406.33-0.55 404.68 0.03 403.03 0.6 400.98 0.6ZM393.83-15.95L393.83-15.35 407.28-15.35 407.28-15.85Q407.28-17.6 406.9-19.1 406.53-20.6 405.73-21.7 404.93-22.8 403.7-23.43 402.48-24.05 400.78-24.05L400.78-24.05Q399.08-24.05 397.78-23.45 396.48-22.85 395.6-21.75 394.73-20.65 394.28-19.18 393.83-17.7 393.83-15.95L393.83-15.95ZM416.52 0L416.52-2.3 420.22-2.3 420.22-22.55 416.52-23.2 416.52-24.9 424.22-26.4 424.22-21.9 424.47-21.9Q424.82-22.7 425.35-23.5 425.87-24.3 426.65-24.95 427.42-25.6 428.45-26 429.47-26.4 430.82-26.4L430.82-26.4Q433.02-26.4 434.35-25.35 435.67-24.3 435.67-22.3L435.67-22.3Q435.67-20.8 434.92-19.95 434.17-19.1 432.97-19.1L432.97-19.1Q431.62-19.1 430.82-19.83 430.02-20.55 430.02-21.7L430.02-21.7Q430.02-22.7 430.45-23.33 430.87-23.95 431.42-24.05L431.42-24.05 431.42-24.15Q431.22-24.2 430.92-24.23 430.62-24.25 430.17-24.25L430.17-24.25Q429.12-24.25 428.07-23.73 427.02-23.2 426.2-22.38 425.37-21.55 424.85-20.5 424.32-19.45 424.32-18.4L424.32-18.4 424.32-2.3 429.02-2.3 429.02 0 416.52 0Z" opacity="1" transform="matrix(1,0,0,1,0,0)" fill="#ed1703" class="undefined-text-1" data-fill-palette-color="secondary" id="text-1"></path></svg></g></svg></g></svg></g></svg></g><g></g></svg></g></svg></g></svg></g></svg></g><defs></defs></svg><rect width="320" height="360" fill="none" stroke="none" visibility="hidden"></rect></g></svg></g></svg>